<svg display="none" fill="none"
    xmlns="http://www.w3.org/2000/svg">
    <defs>
        <symbol id="i-globe" viewBox="0 0 32 32" fill="none">
            <path d="M16 28C14.3487 28 12.7931 27.6842 11.3333 27.0527C9.87356 26.4209 8.60222 25.5636 7.51933 24.4807C6.43644 23.3978 5.57911 22.1264 4.94733 20.6667C4.31578 19.2069 4 17.6513 4 16C4 14.3436 4.31578 12.7867 4.94733 11.3293C5.57911 9.87222 6.43644 8.60222 7.51933 7.51933C8.60222 6.43644 9.87356 5.57911 11.3333 4.94733C12.7931 4.31578 14.3487 4 16 4C17.6564 4 19.2133 4.31578 20.6707 4.94733C22.1278 5.57911 23.3978 6.43644 24.4807 7.51933C25.5636 8.60222 26.4209 9.87222 27.0527 11.3293C27.6842 12.7867 28 14.3436 28 16C28 17.6513 27.6842 19.2069 27.0527 20.6667C26.4209 22.1264 25.5636 23.3978 24.4807 24.4807C23.3978 25.5636 22.1278 26.4209 20.6707 27.0527C19.2133 27.6842 17.6564 28 16 28ZM16 26.677C16.7829 25.6719 17.4282 24.6847 17.936 23.7153C18.4436 22.7462 18.8563 21.6617 19.1743 20.4617H12.8257C13.1779 21.7299 13.5992 22.8487 14.0897 23.818C14.5803 24.7871 15.2171 25.7401 16 26.677ZM14.3027 26.477C13.6804 25.7437 13.1124 24.8372 12.5987 23.7577C12.0851 22.6781 11.7027 21.5794 11.4513 20.4617H6.33833C7.10256 22.1197 8.18589 23.4794 9.58833 24.541C10.991 25.6026 12.5624 26.2479 14.3027 26.477ZM17.6973 26.477C19.4376 26.2479 21.009 25.6026 22.4117 24.541C23.8141 23.4794 24.8974 22.1197 25.6617 20.4617H20.5487C20.212 21.5966 19.7868 22.7038 19.273 23.7833C18.7594 24.8629 18.2342 25.7608 17.6973 26.477ZM5.795 19.1283H11.1743C11.0734 18.5812 11.0021 18.0482 10.9603 17.5293C10.9183 17.0107 10.8973 16.5009 10.8973 16C10.8973 15.4991 10.9183 14.9893 10.9603 14.4707C11.0021 13.9518 11.0734 13.4188 11.1743 12.8717H5.795C5.64967 13.3332 5.53633 13.8362 5.455 14.3807C5.37389 14.9251 5.33333 15.4649 5.33333 16C5.33333 16.5351 5.37389 17.0749 5.455 17.6193C5.53633 18.1638 5.64967 18.6668 5.795 19.1283ZM12.5077 19.1283H19.4923C19.5932 18.5812 19.6646 18.0568 19.7063 17.555C19.7483 17.0534 19.7693 16.5351 19.7693 16C19.7693 15.4649 19.7483 14.9466 19.7063 14.445C19.6646 13.9432 19.5932 13.4188 19.4923 12.8717H12.5077C12.4068 13.4188 12.3354 13.9432 12.2937 14.445C12.2517 14.9466 12.2307 15.4649 12.2307 16C12.2307 16.5351 12.2517 17.0534 12.2937 17.555C12.3354 18.0568 12.4068 18.5812 12.5077 19.1283ZM20.8257 19.1283H26.205C26.3503 18.6668 26.4637 18.1638 26.545 17.6193C26.6261 17.0749 26.6667 16.5351 26.6667 16C26.6667 15.4649 26.6261 14.9251 26.545 14.3807C26.4637 13.8362 26.3503 13.3332 26.205 12.8717H20.8257C20.9266 13.4188 20.9979 13.9518 21.0397 14.4707C21.0817 14.9893 21.1027 15.4991 21.1027 16C21.1027 16.5009 21.0817 17.0107 21.0397 17.5293C20.9979 18.0482 20.9266 18.5812 20.8257 19.1283ZM20.5487 11.5383H25.6617C24.8803 9.84611 23.8098 8.48633 22.45 7.459C21.0902 6.43167 19.506 5.77778 17.6973 5.49733C18.3196 6.31622 18.879 7.25256 19.3757 8.30633C19.8723 9.36033 20.2633 10.4377 20.5487 11.5383ZM12.8257 11.5383H19.1743C18.8221 10.2872 18.3879 9.15567 17.8717 8.14367C17.3554 7.13167 16.7316 6.19144 16 5.323C15.2684 6.19144 14.6446 7.13167 14.1283 8.14367C13.6121 9.15567 13.1779 10.2872 12.8257 11.5383ZM6.33833 11.5383H11.4513C11.7367 10.4377 12.1277 9.36033 12.6243 8.30633C13.121 7.25256 13.6804 6.31622 14.3027 5.49733C12.4769 5.77778 10.8884 6.43589 9.53733 7.47167C8.186 8.50767 7.11967 9.86322 6.33833 11.5383Z" fill="currentColor"/>
        </symbol>
        <symbol id="i-geme" viewBox="0 0 50 50" fill="none">
            <g clip-path="url(#clip0_9_202)">
            <path d="M25 47.9166C24.8481 47.9164 24.698 47.8831 24.5602 47.819C24.4225 47.755 24.3003 47.6618 24.2021 47.5458L0.243758 19.0896C0.108574 18.9289 0.0250987 18.7311 0.00427945 18.5222C-0.0165398 18.3133 0.0262688 18.1029 0.127091 17.9187L8.52709 2.62498C8.6167 2.46121 8.74867 2.32453 8.9092 2.22924C9.06972 2.13395 9.25291 2.08355 9.43959 2.08331H40.5604C40.9417 2.08331 41.2917 2.29165 41.4729 2.62498L49.8708 17.9187C50.0792 18.2958 50.0313 18.7604 49.7542 19.0896L25.7958 47.5458C25.6982 47.6618 25.5764 47.7551 25.4389 47.8192C25.3014 47.8832 25.1517 47.9165 25 47.9166ZM2.30001 18.2937L25 45.2583L47.7 18.2937L39.9438 4.16665H10.0563L2.30001 18.2937Z" fill="currentColor"/>
            <path d="M48.4375 19.7916H1.56248C1.28621 19.7916 1.02126 19.6818 0.82591 19.4865C0.63056 19.2911 0.520813 19.0262 0.520813 18.7499C0.520813 18.4737 0.63056 18.2087 0.82591 18.0133C1.02126 17.818 1.28621 17.7083 1.56248 17.7083H48.4375C48.7137 17.7083 48.9787 17.818 49.1741 18.0133C49.3694 18.2087 49.4791 18.4737 49.4791 18.7499C49.4791 19.0262 49.3694 19.2911 49.1741 19.4865C48.9787 19.6818 48.7137 19.7916 48.4375 19.7916Z" fill="currentColor"/>
            <path d="M35.5458 19.2062C35.3785 19.2064 35.2137 19.1661 35.0653 19.0889C34.917 19.0116 34.7895 18.8996 34.6937 18.7624L25.0042 4.94367L15.4375 18.6895C15.3594 18.8017 15.2599 18.8974 15.1448 18.9711C15.0298 19.0448 14.9013 19.0952 14.7667 19.1193C14.6322 19.1434 14.4942 19.1407 14.3607 19.1115C14.2272 19.0822 14.1007 19.027 13.9885 18.9489C13.762 18.7911 13.6074 18.5499 13.5588 18.2781C13.5347 18.1436 13.5373 18.0056 13.5666 17.8721C13.5958 17.7385 13.651 17.6121 13.7292 17.4999L24.1458 2.52909C24.2413 2.39152 24.3687 2.27912 24.5171 2.20148C24.6655 2.12384 24.8304 2.08328 24.9979 2.08325H25C25.3396 2.08325 25.6562 2.24784 25.8521 2.527L36.3979 17.5666C36.508 17.7224 36.5732 17.9056 36.5861 18.096C36.5991 18.2864 36.5594 18.4767 36.4714 18.646C36.3834 18.8153 36.2505 18.9572 36.0872 19.056C35.924 19.1548 35.7367 19.2067 35.5458 19.2062Z" fill="currentColor"/>
            <path d="M25 47.9166C24.7851 47.9166 24.5754 47.8502 24.3997 47.7263C24.224 47.6025 24.091 47.4274 24.0187 47.2249L8.45832 3.47493C8.38449 3.21961 8.41083 2.94573 8.53199 2.70917C8.65315 2.47261 8.86 2.29117 9.11033 2.20188C9.36067 2.11259 9.63564 2.12216 9.87917 2.22865C10.1227 2.33514 10.3164 2.53051 10.4208 2.77493L25 43.7666L39.5792 2.77493C39.672 2.51469 39.8644 2.30198 40.114 2.1836C40.3637 2.06521 40.6502 2.05086 40.9104 2.14368C41.1707 2.23651 41.3834 2.42891 41.5017 2.67857C41.6201 2.92823 41.6345 3.21469 41.5417 3.47493L25.9812 47.2249C25.909 47.4274 25.776 47.6025 25.6003 47.7263C25.4246 47.8502 25.2149 47.9166 25 47.9166Z" fill="currentColor"/>
            </g>
            <defs>
            <clipPath id="clip0_9_202">
            <rect width="50" height="50" fill="currentColor"/>
            </clipPath>
            </defs>
        </symbol>
        <symbol id="i-logo" viewBox="0 0 143 80" fill="none">
            <path d="M28.8235 49.8086C28.794 49.8488 28.7692 49.8673 28.749 49.8673H25.5184C25.4983 49.8673 25.4781 49.8534 25.4595 49.8225C25.4393 49.7932 25.4191 49.7484 25.4005 49.6898L25.6674 44.3256H22.6743L21.1924 49.6898C21.1723 49.7299 21.1521 49.7685 21.1335 49.8071C21.1133 49.8472 21.0931 49.8657 21.0745 49.8657H17.844C17.8238 49.8657 17.8052 49.8457 17.785 49.8071C17.7649 49.7685 17.7649 49.7284 17.785 49.6898L26.0832 21.6296C26.0832 21.571 26.0926 21.5262 26.1127 21.4969C26.1329 21.4676 26.1515 21.4521 26.1717 21.4521H29.4022C29.4208 21.4521 29.441 21.4722 29.4612 21.5108C29.4814 21.5509 29.4907 21.5895 29.4907 21.6281L28.8685 49.6883C28.8685 49.7284 28.8545 49.767 28.8235 49.8055V49.8086ZM23.5339 40.9074H25.8753L26.527 29.4707L23.5339 40.9074Z" fill="currentColor"/>
            <path d="M37.9363 24.8441L36.4839 34.0108H40.5151C40.5741 34.0108 40.6144 34.0216 40.633 34.0401C40.6532 34.0602 40.6625 34.0802 40.6625 34.0987L40.1582 37.2824C40.1582 37.3024 40.1443 37.3271 40.1132 37.3565C40.0822 37.3858 40.0388 37.4012 39.9798 37.4012H35.9191L34.4963 46.4799H40.512C40.571 46.4799 40.6113 46.4938 40.6299 46.5247C40.6501 46.554 40.6594 46.5787 40.6594 46.5987L40.1257 49.7531C40.1257 49.7731 40.1148 49.7978 40.0962 49.8271C40.076 49.8565 40.0372 49.8719 39.9782 49.8719H30.673C30.6544 49.8719 30.628 49.858 30.5985 49.8271C30.569 49.7963 30.5535 49.7639 30.5535 49.7237L35.058 21.6049C35.058 21.5463 35.0735 21.5062 35.103 21.4876C35.1324 21.4691 35.1573 21.4583 35.1774 21.4583H44.4827C44.5416 21.4583 44.582 21.4737 44.6006 21.5031C44.6192 21.5324 44.6301 21.5571 44.6301 21.5771L44.1258 24.7315C44.1258 24.7515 44.1149 24.7762 44.0963 24.8055C44.0762 24.8349 44.0374 24.8503 43.9784 24.8503H37.9332L37.9363 24.8441Z" fill="currentColor"/>
            <path d="M52.5171 49.838C52.4768 49.858 52.4473 49.8673 52.4287 49.8673H49.2571C49.1981 49.8472 49.1578 49.8179 49.1392 49.7793L48.8723 37.3411H47.4789L45.4928 49.75C45.4928 49.7901 45.4773 49.8195 45.4478 49.838C45.4183 49.858 45.3935 49.8673 45.3733 49.8673H42.2018C42.1831 49.8673 42.1568 49.858 42.1273 49.838C42.0978 49.8195 42.0823 49.7886 42.0823 49.75L46.5867 21.6019C46.5867 21.5432 46.6022 21.5031 46.6317 21.4846C46.6612 21.4661 46.686 21.4553 46.7062 21.4553H51.7149C54.5001 21.4553 55.8935 22.4383 55.8935 24.4028C55.8935 24.7562 55.8733 25.0324 55.8345 25.2284L54.5901 32.98C54.4319 34.0216 54.1851 34.8519 53.85 35.4707C53.5133 36.0895 52.9019 36.5864 52.0128 36.9583L52.5761 49.75C52.5761 49.7901 52.5559 49.8195 52.5171 49.838ZM50.6505 33.6574C50.9267 33.48 51.1144 33.0787 51.2137 32.4491L52.1913 26.3472C52.2114 26.23 52.2208 26.0725 52.2208 25.875C52.2208 25.463 52.1168 25.1975 51.9089 25.0787C51.701 24.9614 51.3798 24.9012 50.9453 24.9012H49.4635L48.0111 33.9198H49.5814C50.0159 33.9198 50.3712 33.8318 50.6489 33.6543L50.6505 33.6574Z" fill="currentColor"/>
            <path d="M57.8083 50.1481C56.9285 50.1574 56.1682 49.9167 55.5258 49.4259C54.8834 48.9352 54.5623 48.2176 54.5623 47.2747C54.5623 46.9213 54.5824 46.6466 54.6212 46.4491L58.0286 24.9614C58.3048 23.3102 58.9674 22.25 60.0147 21.7778C61.0621 21.3056 62.2476 21.071 63.5711 21.071C64.7768 21.071 65.8086 21.2531 66.6682 21.6157C67.5278 21.9799 67.9576 22.7994 67.9576 24.0772C67.9576 24.3333 67.9282 24.6281 67.8692 24.9614L64.4618 46.4491C64.2244 48.0015 63.6223 49.0031 62.6541 49.4552C61.6859 49.9074 60.5594 50.1327 59.2762 50.1327C59.1769 50.1327 58.6881 50.1373 57.8099 50.1466L57.8083 50.1481ZM60.637 46.4043C60.9132 46.2377 61.1009 45.8395 61.2002 45.2114L64.2523 26.0231C64.2725 25.9059 64.2818 25.7485 64.2818 25.5509C64.2818 25.1389 64.1732 24.8688 63.9559 24.7407C63.7387 24.6127 63.4222 24.5494 63.0079 24.5494C62.5331 24.5494 62.1638 24.6435 61.8969 24.8287C61.63 25.0154 61.4469 25.4136 61.3492 26.0231L58.2971 45.2114C58.2567 45.4475 58.2381 45.6142 58.2381 45.713C58.2381 46.125 58.3421 46.3858 58.55 46.4938C58.7579 46.6018 59.0682 46.6559 59.4841 46.6559C59.9775 46.6559 60.3623 46.5725 60.6401 46.4059L60.637 46.4043Z" fill="currentColor"/>
            <path d="M78.4933 22.1913C79.1745 22.6821 79.5159 23.3997 79.5159 24.3426C79.5159 24.6173 79.4864 24.9228 79.4274 25.2561L76.079 46.2423C75.9005 47.4799 75.4024 48.3935 74.5832 48.983C73.7623 49.5725 72.4341 49.8673 70.597 49.8673H65.7962C65.7776 49.8673 65.7512 49.8534 65.7217 49.8225C65.6922 49.7916 65.6767 49.7592 65.6767 49.7191L70.1811 21.6003C70.1811 21.5416 70.1904 21.5015 70.2106 21.483C70.2308 21.4645 70.2494 21.4537 70.2696 21.4537H75.0999C76.681 21.4537 77.8121 21.699 78.4933 22.1898V22.1913ZM75.7826 26.3179C75.8028 26.2006 75.8121 26.0432 75.8121 25.8456C75.8121 25.4336 75.7128 25.1682 75.5157 25.0494C75.3171 24.9321 75.0114 24.8719 74.5971 24.8719H73.0563L69.6179 46.4475H71.1587C71.6133 46.4475 71.9779 46.3595 72.2557 46.1821C72.5319 46.0046 72.7196 45.6126 72.8189 45.0031L75.7826 26.3163V26.3179Z" fill="currentColor"/>
            <path d="M84.8504 24.8441L83.3981 34.0108H87.4292C87.4882 34.0108 87.5285 34.0216 87.5472 34.0401C87.5673 34.0602 87.5766 34.0802 87.5766 34.0987L87.0724 37.2824C87.0724 37.3024 87.0584 37.3271 87.0274 37.3565C86.9963 37.3858 86.9529 37.4012 86.8939 37.4012H82.8333L81.4104 46.4799H87.4261C87.4851 46.4799 87.5254 46.4938 87.5441 46.5247C87.5642 46.554 87.5735 46.5787 87.5735 46.5987L87.0398 49.7531C87.0398 49.7731 87.0289 49.7978 87.0103 49.8271C86.9901 49.8565 86.9513 49.8719 86.8924 49.8719H77.5871C77.5685 49.8719 77.5421 49.858 77.5126 49.8271C77.4832 49.7963 77.4677 49.7639 77.4677 49.7237L81.9721 21.6049C81.9721 21.5463 81.9876 21.5062 82.0171 21.4876C82.0466 21.4691 82.0714 21.4583 82.0916 21.4583H91.3968C91.4558 21.4583 91.4961 21.4737 91.5147 21.5031C91.5333 21.5324 91.5442 21.5571 91.5442 21.5771L91.0399 24.7315C91.0399 24.7515 91.0291 24.7762 91.0104 24.8055C90.9903 24.8349 90.9515 24.8503 90.8925 24.8503H84.8473L84.8504 24.8441Z" fill="currentColor"/>
            <path d="M103.298 21.4691C103.327 21.4799 103.343 21.5139 103.343 21.5725L99.3723 46.449C99.1752 47.7268 98.6663 48.6651 97.8455 49.2639C97.0247 49.8642 95.6871 50.1635 93.8298 50.1635C92.2301 50.1635 91.0974 49.9429 90.4364 49.5C89.7754 49.0586 89.4433 48.3657 89.4433 47.4213C89.4433 47.1265 89.4728 46.8024 89.5317 46.449L93.5024 21.5725C93.5024 21.5139 93.5179 21.4799 93.5474 21.4691C93.5769 21.4598 93.6017 21.4537 93.6219 21.4537H96.8524C96.9316 21.4537 96.9704 21.4938 96.9704 21.571L93.206 45.2098C93.1657 45.446 93.1471 45.6126 93.1471 45.7114C93.1471 46.1234 93.251 46.3889 93.459 46.5077C93.6669 46.6265 93.9772 46.6836 94.3931 46.6836C94.8865 46.6836 95.2713 46.5956 95.549 46.4182C95.8252 46.2407 96.013 45.8395 96.1123 45.2098L99.8766 21.571C99.8766 21.5123 99.9061 21.4722 99.965 21.4537H103.225C103.244 21.4537 103.27 21.4583 103.3 21.4691H103.298Z" fill="currentColor"/>
            <path d="M110.204 30.8426C110.175 30.8334 110.17 30.8087 110.189 30.7685L110.929 26.0525C110.949 25.9352 110.958 25.7778 110.958 25.5803C110.958 25.1682 110.85 24.892 110.633 24.7547C110.415 24.6173 110.108 24.5479 109.714 24.5479C109.239 24.5479 108.87 24.6466 108.603 24.8426C108.336 25.0401 108.153 25.4429 108.055 26.0509L107.492 29.4707L107.463 30.0602C107.463 30.5124 107.542 30.8766 107.7 31.1513L111.197 37.5479C111.731 38.4722 111.998 39.4445 111.998 40.4661C111.998 40.8596 111.969 41.2624 111.91 41.6744L111.199 46.4198C111.002 47.6775 110.488 48.6111 109.658 49.2192C108.828 49.8287 107.484 50.1327 105.629 50.1327C104.029 50.1327 102.902 49.9059 102.251 49.4553C101.599 49.0031 101.273 48.3256 101.273 47.4213C101.273 47.1065 101.303 46.7732 101.362 46.4198L102.28 40.4661C102.3 40.4074 102.35 40.3781 102.429 40.3781H105.66C105.678 40.3781 105.705 40.3827 105.734 40.3935C105.764 40.4043 105.768 40.4275 105.75 40.4676L105.009 45.1837C104.989 45.3009 104.98 45.4692 104.98 45.6852C104.98 46.0972 105.079 46.3627 105.276 46.4815C105.473 46.5988 105.781 46.659 106.195 46.659C106.688 46.659 107.068 46.5664 107.335 46.3781C107.602 46.1914 107.784 45.7932 107.883 45.1852L108.446 41.7655C108.446 41.6868 108.456 41.5942 108.476 41.4861C108.494 41.3781 108.505 41.2562 108.505 41.1173C108.505 40.7053 108.426 40.3503 108.268 40.0556L104.712 33.6003C104.178 32.6775 103.911 31.7438 103.911 30.8009C103.911 30.3688 103.95 29.9568 104.029 29.5633L104.739 24.9352C104.937 23.6775 105.461 22.7207 106.31 22.0618C107.158 21.4028 108.484 21.0741 110.28 21.0741C111.862 21.0741 112.986 21.3241 113.658 21.8256C114.33 22.3272 114.665 23.0494 114.665 23.9923C114.665 24.2871 114.636 24.6019 114.577 24.9352L113.658 30.7716C113.658 30.8303 113.609 30.8596 113.509 30.8596H110.279C110.259 30.8596 110.234 30.855 110.204 30.8442V30.8426Z" fill="currentColor"/>
            <path d="M15.3505 43.8873L12.6785 53.1867H118.093C118.093 53.1867 105.292 34.0895 137.796 17.9259C137.796 17.9259 105.737 43.6111 139.132 66.1944L5.77679 56.0108L15.3505 43.8889V43.8873Z" fill="currentColor"/>
        </symbol>
        <symbol id="i-menu" viewBox="0 0 24 24" fill="none">
            <path fill-rule="evenodd" clip-rule="evenodd" d="M19.75 12C19.75 11.5858 19.4142 11.25 19 11.25H5C4.58579 11.25 4.25 11.5858 4.25 12C4.25 12.4142 4.58579 12.75 5 12.75H19C19.4142 12.75 19.75 12.4142 19.75 12Z" fill="currentColor"/>
            <path fill-rule="evenodd" clip-rule="evenodd" d="M19.75 7C19.75 6.58579 19.4142 6.25 19 6.25H5C4.58579 6.25 4.25 6.58579 4.25 7C4.25 7.41421 4.58579 7.75 5 7.75H19C19.4142 7.75 19.75 7.41421 19.75 7Z" fill="currentColor"/>
            <path fill-rule="evenodd" clip-rule="evenodd" d="M19.75 17C19.75 16.5858 19.4142 16.25 19 16.25H5C4.58579 16.25 4.25 16.5858 4.25 17C4.25 17.4142 4.58579 17.75 5 17.75H19C19.4142 17.75 19.75 17.4142 19.75 17Z" fill="currentColor"/>
        </symbol>
        <symbol id="i-whatsapp" viewBox="0 0 27 27" fill="none">
            <path d="M22.4085 3.82812C19.939 1.36719 16.6463 0 13.1707 0C5.94512 0 0.091462 5.83333 0.091462 13.0339C0.091462 15.3125 0.731707 17.5911 1.82927 19.5052L0 26.25L6.95122 24.4271C8.87195 25.4297 10.9756 25.9766 13.1707 25.9766C20.3963 25.9766 26.25 20.1432 26.25 12.9427C26.1585 9.57031 24.878 6.28906 22.4085 3.82812ZM19.4817 17.6823C19.2073 18.4115 17.9268 19.1406 17.2866 19.2318C16.7378 19.3229 16.0061 19.3229 15.2744 19.1406C14.8171 18.9583 14.1768 18.776 13.4451 18.4115C10.1524 17.0443 8.04878 13.763 7.86586 13.4896C7.68293 13.3073 6.4939 11.7578 6.4939 10.1172C6.4939 8.47656 7.31707 7.74739 7.59146 7.38281C7.86585 7.01823 8.23171 7.01823 8.5061 7.01823C8.68902 7.01823 8.96341 7.01823 9.14634 7.01823C9.32926 7.01823 9.60366 6.92708 9.87805 7.5651C10.1524 8.20312 10.7927 9.84375 10.8841 9.9349C10.9756 10.1172 10.9756 10.2995 10.8841 10.4818C10.7927 10.6641 10.7012 10.8464 10.5183 11.0286C10.3354 11.2109 10.1524 11.4844 10.061 11.5755C9.87805 11.7578 9.69512 11.9401 9.87805 12.2135C10.061 12.5781 10.7012 13.5807 11.7073 14.4922C12.9878 15.5859 13.9939 15.9505 14.3598 16.1328C14.7256 16.3151 14.9085 16.224 15.0915 16.0417C15.2744 15.8594 15.9146 15.1302 16.0976 14.7656C16.2805 14.401 16.5549 14.4922 16.8293 14.5833C17.1037 14.6745 18.75 15.4948 19.0244 15.6771C19.3902 15.8594 19.5732 15.9505 19.6646 16.0417C19.7561 16.3151 19.7561 16.9531 19.4817 17.6823Z" fill="currentColor"/>
        </symbol>
        <symbol id="i-instagram" viewBox="0 0 25 25" fill="none">
            <path d="M12.5 2.25904C15.8133 2.25904 16.2651 2.25904 17.6205 2.25904C18.8253 2.25904 19.4277 2.56024 19.8795 2.71084C20.4819 3.01205 20.9337 3.16265 21.3855 3.61446C21.8374 4.06627 22.1386 4.51807 22.2892 5.12048C22.4398 5.57229 22.5904 6.1747 22.741 7.37952C22.741 8.73494 22.741 9.03615 22.741 12.5C22.741 15.9639 22.741 16.2651 22.741 17.6205C22.741 18.8253 22.4398 19.4277 22.2892 19.8795C21.988 20.4819 21.8374 20.9337 21.3855 21.3855C20.9337 21.8374 20.4819 22.1386 19.8795 22.2892C19.4277 22.4398 18.8253 22.5904 17.6205 22.741C16.2651 22.741 15.9639 22.741 12.5 22.741C9.03615 22.741 8.73494 22.741 7.37952 22.741C6.1747 22.741 5.57229 22.4398 5.12048 22.2892C4.51807 21.988 4.06627 21.8374 3.61446 21.3855C3.16265 20.9337 2.86145 20.4819 2.71084 19.8795C2.56024 19.4277 2.40964 18.8253 2.25904 17.6205C2.25904 16.2651 2.25904 15.9639 2.25904 12.5C2.25904 9.03615 2.25904 8.73494 2.25904 7.37952C2.25904 6.1747 2.56024 5.57229 2.71084 5.12048C3.01205 4.51807 3.16265 4.06627 3.61446 3.61446C4.06627 3.16265 4.51807 2.86145 5.12048 2.71084C5.57229 2.56024 6.1747 2.40964 7.37952 2.25904C8.73494 2.25904 9.18675 2.25904 12.5 2.25904ZM12.5 0C9.03615 0 8.73494 0 7.37952 0C6.0241 0 5.12048 0.301206 4.36747 0.602411C3.61446 0.903615 2.86145 1.35542 2.10843 2.10843C1.35542 2.86145 1.05422 3.46386 0.602411 4.36747C0.301206 5.12048 0.150602 6.0241 0 7.37952C0 8.73494 0 9.18675 0 12.5C0 15.9639 0 16.2651 0 17.6205C0 18.9759 0.301206 19.8795 0.602411 20.6325C0.903615 21.3855 1.35542 22.1386 2.10843 22.8916C2.86145 23.6446 3.46386 23.9458 4.36747 24.3976C5.12048 24.6988 6.0241 24.8494 7.37952 25C8.73494 25 9.18675 25 12.5 25C15.8133 25 16.2651 25 17.6205 25C18.9759 25 19.8795 24.6988 20.6325 24.3976C21.3855 24.0964 22.1386 23.6446 22.8916 22.8916C23.6446 22.1386 23.9458 21.5361 24.3976 20.6325C24.6988 19.8795 24.8494 18.9759 25 17.6205C25 16.2651 25 15.8133 25 12.5C25 9.18675 25 8.73494 25 7.37952C25 6.0241 24.6988 5.12048 24.3976 4.36747C24.0964 3.61446 23.6446 2.86145 22.8916 2.10843C22.1386 1.35542 21.5361 1.05422 20.6325 0.602411C19.8795 0.301206 18.9759 0.150602 17.6205 0C16.2651 0 15.9639 0 12.5 0Z" fill="currentColor"/>
            <path d="M12.5 6.0241C8.88554 6.0241 6.0241 8.88554 6.0241 12.5C6.0241 16.1145 8.88554 18.9759 12.5 18.9759C16.1145 18.9759 18.9759 16.1145 18.9759 12.5C18.9759 8.88554 16.1145 6.0241 12.5 6.0241ZM12.5 16.7169C10.241 16.7169 8.28313 14.9096 8.28313 12.5C8.28313 10.241 10.0904 8.28313 12.5 8.28313C14.759 8.28313 16.7169 10.0904 16.7169 12.5C16.7169 14.759 14.759 16.7169 12.5 16.7169Z" fill="currentColor"/>
            <path d="M19.1265 7.37952C19.9583 7.37952 20.6325 6.70525 20.6325 5.8735C20.6325 5.04174 19.9583 4.36747 19.1265 4.36747C18.2948 4.36747 17.6205 5.04174 17.6205 5.8735C17.6205 6.70525 18.2948 7.37952 19.1265 7.37952Z" fill="currentColor"/>
        </symbol>
        <symbol id="i-telegram" viewBox="0 0 24 22" fill="none">
            <path d="M23.75 0.752782L19.9932 20.3653C19.9932 20.3653 19.4676 21.7251 18.0236 21.073L9.35572 14.1907L9.31553 14.1704C10.4864 13.0817 19.5655 4.62833 19.9623 4.24515C20.5766 3.6517 20.1952 3.29841 19.482 3.7467L6.07099 12.5662L0.897048 10.7635C0.897048 10.7635 0.0828217 10.4635 0.00449105 9.81138C-0.0748702 9.15816 0.923845 8.80487 0.923845 8.80487L22.0164 0.236184C22.0164 0.236184 23.75 -0.552588 23.75 0.752782Z" fill="currentColor"/>
        </symbol>
        <symbol id="i-close" viewBox="0 0 24 24" fill="none">
            <path d="M7 17L17 7M7.00001 7.00001L17 17" stroke="currentColor" stroke-width="1.5" stroke-linecap="round"/>
        </symbol>
    </defs>
</svg>