<svg display="none" fill="none" xmlns="http://www.w3.org/2000/svg">
    <defs>
        <symbol id="i-globe" viewBox="0 0 32 32">
            <path d="M16 28C14.3487 28 12.7931 27.6842 11.3333 27.0527C9.87356 26.4209 8.60222 25.5636 7.51933 24.4807C6.43644 23.3978 5.57911 22.1264 4.94733 20.6667C4.31578 19.2069 4 17.6513 4 16C4 14.3436 4.31578 12.7867 4.94733 11.3293C5.57911 9.87222 6.43644 8.60222 7.51933 7.51933C8.60222 6.43644 9.87356 5.57911 11.3333 4.94733C12.7931 4.31578 14.3487 4 16 4C17.6564 4 19.2133 4.31578 20.6707 4.94733C22.1278 5.57911 23.3978 6.43644 24.4807 7.51933C25.5636 8.60222 26.4209 9.87222 27.0527 11.3293C27.6842 12.7867 28 14.3436 28 16C28 17.6513 27.6842 19.2069 27.0527 20.6667C26.4209 22.1264 25.5636 23.3978 24.4807 24.4807C23.3978 25.5636 22.1278 26.4209 20.6707 27.0527C19.2133 27.6842 17.6564 28 16 28ZM16 26.677C16.7829 25.6719 17.4282 24.6847 17.936 23.7153C18.4436 22.7462 18.8563 21.6617 19.1743 20.4617H12.8257C13.1779 21.7299 13.5992 22.8487 14.0897 23.818C14.5803 24.7871 15.2171 25.7401 16 26.677ZM14.3027 26.477C13.6804 25.7437 13.1124 24.8372 12.5987 23.7577C12.0851 22.6781 11.7027 21.5794 11.4513 20.4617H6.33833C7.10256 22.1197 8.18589 23.4794 9.58833 24.541C10.991 25.6026 12.5624 26.2479 14.3027 26.477ZM17.6973 26.477C19.4376 26.2479 21.009 25.6026 22.4117 24.541C23.8141 23.4794 24.8974 22.1197 25.6617 20.4617H20.5487C20.212 21.5966 19.7868 22.7038 19.273 23.7833C18.7594 24.8629 18.2342 25.7608 17.6973 26.477ZM5.795 19.1283H11.1743C11.0734 18.5812 11.0021 18.0482 10.9603 17.5293C10.9183 17.0107 10.8973 16.5009 10.8973 16C10.8973 15.4991 10.9183 14.9893 10.9603 14.4707C11.0021 13.9518 11.0734 13.4188 11.1743 12.8717H5.795C5.64967 13.3332 5.53633 13.8362 5.455 14.3807C5.37389 14.9251 5.33333 15.4649 5.33333 16C5.33333 16.5351 5.37389 17.0749 5.455 17.6193C5.53633 18.1638 5.64967 18.6668 5.795 19.1283ZM12.5077 19.1283H19.4923C19.5932 18.5812 19.6646 18.0568 19.7063 17.555C19.7483 17.0534 19.7693 16.5351 19.7693 16C19.7693 15.4649 19.7483 14.9466 19.7063 14.445C19.6646 13.9432 19.5932 13.4188 19.4923 12.8717H12.5077C12.4068 13.4188 12.3354 13.9432 12.2937 14.445C12.2517 14.9466 12.2307 15.4649 12.2307 16C12.2307 16.5351 12.2517 17.0534 12.2937 17.555C12.3354 18.0568 12.4068 18.5812 12.5077 19.1283ZM20.8257 19.1283H26.205C26.3503 18.6668 26.4637 18.1638 26.545 17.6193C26.6261 17.0749 26.6667 16.5351 26.6667 16C26.6667 15.4649 26.6261 14.9251 26.545 14.3807C26.4637 13.8362 26.3503 13.3332 26.205 12.8717H20.8257C20.9266 13.4188 20.9979 13.9518 21.0397 14.4707C21.0817 14.9893 21.1027 15.4991 21.1027 16C21.1027 16.5009 21.0817 17.0107 21.0397 17.5293C20.9979 18.0482 20.9266 18.5812 20.8257 19.1283ZM20.5487 11.5383H25.6617C24.8803 9.84611 23.8098 8.48633 22.45 7.459C21.0902 6.43167 19.506 5.77778 17.6973 5.49733C18.3196 6.31622 18.879 7.25256 19.3757 8.30633C19.8723 9.36033 20.2633 10.4377 20.5487 11.5383ZM12.8257 11.5383H19.1743C18.8221 10.2872 18.3879 9.15567 17.8717 8.14367C17.3554 7.13167 16.7316 6.19144 16 5.323C15.2684 6.19144 14.6446 7.13167 14.1283 8.14367C13.6121 9.15567 13.1779 10.2872 12.8257 11.5383ZM6.33833 11.5383H11.4513C11.7367 10.4377 12.1277 9.36033 12.6243 8.30633C13.121 7.25256 13.6804 6.31622 14.3027 5.49733C12.4769 5.77778 10.8884 6.43589 9.53733 7.47167C8.186 8.50767 7.11967 9.86322 6.33833 11.5383Z" fill="currentColor"/>
        </symbol>

        <symbol id="i-shield" viewBox="0 0 42 47">
            <path fill-rule="evenodd" clip-rule="evenodd" d="M10.977 3.82743C14.2109 2.92963 17.3383 1.68545 20.3052 0.116494C20.4444 0.0410438 20.6001 0.00104197 20.7585 2.00835e-05C20.9169 -0.0010018 21.0731 0.0369877 21.2134 0.110635C24.1828 1.68318 27.3137 2.93001 30.5513 3.82938C33.8217 4.73271 37.1774 5.2927 40.5639 5.50028C40.691 5.49964 40.8169 5.52413 40.9344 5.57236C41.0519 5.62058 41.1587 5.69158 41.2487 5.78126C41.3386 5.87095 41.4099 5.97754 41.4585 6.09491C41.5071 6.21228 41.532 6.3381 41.5317 6.46513V18.4358C41.4604 25.7854 39.7378 31.7337 36.3305 36.429C32.9233 41.1243 27.8472 44.5413 21.0737 46.8177C20.8754 46.8846 20.6607 46.8846 20.4624 46.8177C13.6889 44.5413 8.61571 41.1272 5.20555 36.429C1.80809 31.7532 0.0864085 25.8343 0.0014476 18.5276C-0.000482534 18.4951 -0.000482534 18.4625 0.0014476 18.43V6.46513C0.00150608 6.21951 0.0953317 5.98318 0.263761 5.8044C0.432191 5.62563 0.662517 5.5179 0.907698 5.50321C4.31347 5.29792 7.68835 4.73626 10.977 3.82743ZM20.7641 2.04618C26.6577 5.08622 33.0024 6.83817 39.6011 7.36063V18.429C39.5317 25.3548 37.9292 30.929 34.7612 35.2972C31.644 39.594 26.9878 42.7444 20.7602 44.888C14.5327 42.7444 9.87645 39.5921 6.75926 35.2972C3.60594 30.9466 2.00438 25.3938 1.9243 18.5013V7.36259C8.52586 6.84013 14.8706 5.08817 20.7641 2.04618Z" fill="currentColor"/>
            <path d="M27.2084 17.4339C26.8104 17.4487 26.4343 17.6267 26.1629 17.9287L18.3972 26.559L15.3747 23.1003C15.2427 22.9491 15.0831 22.8263 14.9052 22.739C14.7274 22.6516 14.5346 22.6014 14.338 22.5913C14.1414 22.5811 13.9448 22.6111 13.7594 22.6796C13.574 22.7482 13.4034 22.8538 13.2574 22.9907C13.1115 23.1275 12.9929 23.2927 12.9086 23.4769C12.8243 23.6612 12.7759 23.8608 12.766 24.0645C12.7562 24.2681 12.7852 24.4718 12.8514 24.6638C12.9175 24.8559 13.0195 25.0325 13.1516 25.1837L17.205 29.8364C17.3389 30.0138 17.5085 30.1589 17.702 30.2617C17.8955 30.3645 18.1083 30.4225 18.3255 30.4316C18.5428 30.4408 18.7594 30.4009 18.9603 30.3147C19.1612 30.2286 19.3416 30.0982 19.489 29.9326L28.3617 20.0484C28.633 19.7464 28.7775 19.3451 28.7632 18.9328C28.7489 18.5205 28.5771 18.1309 28.2855 17.8498C27.9939 17.5687 27.6065 17.4191 27.2084 17.4339Z" fill="currentColor"/>
        </symbol>

        <symbol id="i-samalet" viewBox="0 0 56 40">
           <path d="M6.67574 23.7769C6.19361 24.0023 5.98091 24.5699 6.19581 25.055L8.39783 29.7669C8.5061 30.0016 8.70343 30.1842 8.9461 30.2743C9.05249 30.3128 9.16523 30.3327 9.27869 30.3327C9.42042 30.3337 9.56067 30.3039 9.68965 30.2453L26.3272 22.4993L24.8202 38.2049C24.8058 38.3572 24.8274 38.5107 24.8834 38.653C24.9394 38.7954 25.0282 38.9227 25.1426 39.0245C25.8718 39.6261 26.7808 39.9692 27.7269 40C27.9876 39.9996 28.2472 39.967 28.4998 39.9028C29.8505 39.5515 30.8977 38.3518 31.6121 36.303L38.1595 16.9782L51.1266 10.949C54.9434 9.17373 56.9104 5.57416 55.5895 2.76462C55.2202 2.0415 54.6779 1.42022 54.0105 0.955698C53.343 0.49118 52.571 0.19774 51.7628 0.101326C49.9394 -0.173057 48.0755 0.11295 46.4193 0.921234L31.4552 7.91548L15.3663 1.64284C13.3401 0.882131 11.7354 0.901683 10.61 1.71158C10.1439 2.09281 9.77057 2.57433 9.51796 3.11999C9.26535 3.66564 9.14003 4.26125 9.15143 4.8621C9.15631 5.01446 9.19691 5.16356 9.27 5.29746C9.34308 5.43137 9.4466 5.54635 9.57228 5.63321L20.406 13.0566L14.2017 15.9832L3.79788 13.3489C3.59036 13.2981 3.37188 13.3164 3.17577 13.401C2.97966 13.4856 2.81668 13.6318 2.7117 13.8173L0.118641 18.4701C0.0521142 18.592 0.0125217 18.7267 0.00252129 18.8651C-0.00747909 19.0036 0.0123441 19.1425 0.0606601 19.2727C0.108709 19.403 0.184164 19.5215 0.281961 19.6204C0.379758 19.7192 0.497635 19.7961 0.627681 19.8458L8.32981 23.0165L6.67574 23.7769ZM11.1574 4.37449C11.2147 3.9626 11.4242 3.58688 11.7449 3.3209C12.303 2.92072 13.3208 2.97937 14.681 3.48646L29.0088 9.05682L22.471 12.1004L11.1574 4.37449ZM2.34977 18.4607L4.05256 15.4465L14.0643 17.924C14.2801 17.9784 14.5078 17.9579 14.7107 17.8659L47.2514 2.71598C48.5454 2.0798 50.0021 1.84851 51.4303 2.05248C51.9236 2.09786 52.3986 2.26177 52.8145 2.53019C53.2304 2.79861 53.5749 3.16353 53.8183 3.59368C54.6398 5.34995 53.0251 7.91548 50.2944 9.18359L39.0203 14.4518L39.7056 12.4319C39.8787 11.9122 39.5959 11.3507 39.0745 11.1784C38.5526 11.0061 37.9896 11.2881 37.8168 11.8077L29.7621 35.6977C29.2825 37.0541 28.6854 37.864 28.0201 38.039C27.608 38.1178 27.1812 38.0378 26.826 37.8151L28.7836 17.3289C28.8347 16.7903 28.4384 16.3122 27.8975 16.2612C27.3572 16.2096 26.8775 16.6052 26.826 17.1438L26.523 20.275L9.72849 28.0791L8.34934 25.1525L11.1086 23.8652C11.2823 23.7889 11.43 23.6639 11.5338 23.5054C11.6375 23.3469 11.6927 23.1617 11.6927 22.9725C11.6927 22.5858 11.4638 22.2357 11.1086 22.0799L2.34977 18.4607Z" fill="currentColor"/>
        </symbol>

        <symbol id="i-globus" viewBox="0 0 50 50">
           <path d="M25.0089 2.67337e-07C15.0057 -0.00145776 5.96511 5.96115 2.02791 15.1568L1.71631 15.2602L1.83712 15.6226C-3.3468 28.408 2.81535 42.9751 15.6008 48.159C18.587 49.3698 21.7792 49.9914 25.0015 49.9896C38.8057 49.9917 49.9979 38.8027 50 24.9985C50.0021 11.1943 38.8132 0.00197902 25.0089 2.67337e-07ZM44.6145 37.5968L43.331 36.3141V33.3264C43.3324 33.1975 43.3039 33.07 43.2477 32.954L39.9983 26.4645V23.3285C39.9983 23.1913 39.9645 23.0563 39.8998 22.9354C39.8352 22.8145 39.7416 22.7114 39.6276 22.6353L37.1281 20.969C37.0312 20.9043 36.9218 20.8606 36.807 20.8408C36.6922 20.821 36.5745 20.8255 36.4616 20.854L33.4005 21.6188L28.2591 19.4126L27.5518 14.457L29.5122 12.4974H33.7205L35.1368 14.6261C35.2001 14.7208 35.2822 14.8016 35.3779 14.8633C35.4736 14.9251 35.581 14.9666 35.6934 14.9852L40.6924 15.8184C40.8262 15.8408 40.9636 15.83 41.0923 15.7867L45.6963 14.252C49.5579 21.6625 49.1449 30.5753 44.6145 37.5968ZM41.1781 8.20996L39.8234 9.1131L36.0467 8.35743L33.5963 7.54176C33.4464 7.49079 33.2849 7.48442 33.1314 7.52343L30.0337 8.29744L28.6757 7.84503L29.6821 5.83212H32.4999C32.6291 5.83225 32.7566 5.8023 32.8723 5.74464L35.755 4.30327C37.7402 5.33947 39.5665 6.6551 41.1781 8.20996ZM15.8759 3.52677L17.8754 4.85982C17.9737 4.92521 18.0847 4.96895 18.2012 4.98813L22.2387 5.66132L21.8446 6.84024L19.7409 7.5426C19.5524 7.60529 19.3926 7.73323 19.2901 7.90335L16.8973 11.8909L13.0539 14.197L7.38846 15.006C7.18984 15.0341 7.00802 15.1329 6.87639 15.2843C6.74477 15.4357 6.67217 15.6294 6.67194 15.83V18.3295C6.67199 18.5505 6.7598 18.7623 6.91606 18.9186L8.33826 20.3408V21.7721L4.87232 19.4609L3.61508 15.6892C6.00705 10.2237 10.3913 5.87466 15.8759 3.52677ZM13.5039 30.8436L9.73797 30.0896L8.33826 27.2976V25.3397L11.4426 22.2354L12.5915 24.5341C12.6608 24.6725 12.7672 24.789 12.8989 24.8704C13.0306 24.9518 13.1824 24.9949 13.3372 24.9948H18.6978L20.9548 28.7565C21.0288 28.8797 21.1335 28.9817 21.2586 29.0525C21.3837 29.1233 21.5251 29.1606 21.6688 29.1606H23.985L23.4018 32.0825L20.2474 35.2368C20.1699 35.3141 20.1084 35.4059 20.0664 35.507C20.0244 35.6081 20.0026 35.7164 20.0025 35.8259V37.9088L17.0031 40.1583C16.8997 40.2359 16.8157 40.3366 16.7578 40.4522C16.7 40.5679 16.6699 40.6955 16.6699 40.8248V43.8342L15.6334 43.4909L14.1704 39.8317V31.6601C14.1704 31.468 14.1041 31.2818 13.9826 31.133C13.8612 30.9842 13.692 30.882 13.5039 30.8436ZM10.9994 43.6514C3.14382 37.758 -0.178298 27.5751 2.69027 18.1829L3.38263 20.2591C3.44094 20.4348 3.55615 20.5861 3.71006 20.689L7.86336 23.4576L6.91606 24.4058C6.7598 24.562 6.67199 24.7738 6.67194 24.9948V27.4943C6.67181 27.6235 6.70176 27.751 6.75942 27.8667L8.42574 31.1993C8.48268 31.3129 8.56483 31.412 8.66591 31.4889C8.76699 31.5659 8.88433 31.6187 9.00895 31.6434L12.5082 32.3424V39.9917C12.5081 40.0975 12.5282 40.2024 12.5674 40.3008L14.2337 44.4666C14.2788 44.579 14.3478 44.6803 14.436 44.7633C14.5242 44.8463 14.6295 44.9091 14.7444 44.9473L17.2439 45.7805C17.3274 45.8088 17.4149 45.8234 17.503 45.8238C17.724 45.8238 17.9359 45.736 18.0922 45.5798C18.2484 45.4235 18.3362 45.2116 18.3362 44.9906V41.2414L21.3356 38.9919C21.439 38.9143 21.523 38.8136 21.5808 38.6979C21.6387 38.5823 21.6688 38.4547 21.6688 38.3254V36.1708L24.7573 33.0823C24.8735 32.9659 24.9526 32.8178 24.9848 32.6565L25.818 28.4907C25.8421 28.3699 25.8392 28.2452 25.8093 28.1257C25.7795 28.0061 25.7235 27.8947 25.6454 27.7994C25.5673 27.7041 25.469 27.6273 25.3577 27.5745C25.2463 27.5218 25.1247 27.4943 25.0015 27.4943H22.1404L19.8834 23.7326C19.8093 23.6093 19.7047 23.5073 19.5795 23.4365C19.4544 23.3657 19.3131 23.3285 19.1693 23.3285H13.8521L12.4207 20.4566C12.3617 20.3384 12.2753 20.236 12.1688 20.1577C12.0624 20.0795 11.9388 20.0277 11.8084 20.0067C11.6781 19.9842 11.5443 19.9936 11.4184 20.0343C11.2926 20.0749 11.1785 20.1455 11.086 20.24L10.0046 21.3172V19.9958C10.0045 19.7749 9.91672 19.563 9.76046 19.4068L8.33826 17.9846V16.5524L13.4555 15.8217C13.5654 15.8058 13.6711 15.7681 13.7663 15.7109L17.9321 13.2114C18.049 13.1412 18.1468 13.0433 18.217 12.9265L20.5582 9.02479L22.7653 8.28827C22.8882 8.24796 22.9999 8.17929 23.0914 8.08782C23.1828 7.99635 23.2515 7.88464 23.2918 7.76172L24.125 5.26224C24.1627 5.14816 24.1753 5.02728 24.1619 4.90789C24.1485 4.7885 24.1094 4.67341 24.0473 4.57053C23.9853 4.46765 23.9017 4.3794 23.8024 4.31184C23.703 4.24429 23.5903 4.19901 23.4718 4.17913L18.6494 3.37513L17.8021 2.81025C23.0451 1.10377 28.7237 1.31489 33.8254 3.40596L32.3033 4.1658H29.1673C29.0117 4.16495 28.8591 4.20766 28.7265 4.28908C28.594 4.37051 28.4869 4.4874 28.4174 4.62654L26.7511 7.95918C26.6979 8.06595 26.6682 8.18292 26.664 8.30216C26.6599 8.4214 26.6815 8.54014 26.7272 8.65033C26.7729 8.76053 26.8418 8.85962 26.9292 8.9409C27.0165 9.02217 27.1203 9.08374 27.2335 9.12143L29.733 9.95459C29.8829 10.0055 30.0444 10.012 30.1979 9.97292L33.2956 9.19892L35.5651 9.95459C35.5976 9.96626 35.631 9.97521 35.6651 9.98125L39.8309 10.8144C39.9381 10.8363 40.0487 10.8366 40.1561 10.8155C40.2635 10.7943 40.3656 10.752 40.4566 10.6911L42.3528 9.42637C43.2861 10.4658 44.1248 11.5864 44.859 12.7748L40.7598 14.1412L36.3216 13.4014L34.8552 11.2018C34.7795 11.0883 34.6771 10.9952 34.557 10.9305C34.4368 10.8659 34.3026 10.8317 34.1662 10.8311H29.1673C28.9463 10.8311 28.7344 10.9189 28.5782 11.0752L26.0787 13.5747C25.9872 13.6662 25.9182 13.7777 25.8773 13.9005C25.8364 14.0233 25.8246 14.1539 25.8429 14.282L26.6761 20.1141C26.6967 20.2559 26.7536 20.39 26.8411 20.5034C26.9287 20.6168 27.044 20.7057 27.176 20.7615L33.0081 23.261C33.1752 23.3333 33.3615 23.3483 33.538 23.3035L36.5132 22.5595L38.332 23.7742V26.6611C38.3306 26.79 38.3591 26.9175 38.4153 27.0335L41.6646 33.523V36.659C41.6647 36.88 41.7525 37.0919 41.9088 37.2481L43.6517 38.9919C35.9218 49.2953 21.3027 51.3815 10.9994 43.6514Z" fill="currentColor"/>
        </symbol>

        <symbol id="i-pilot" viewBox="0 0 47 50">
            <path d="M38.4176 25.8555C38.323 25.8381 38.2259 25.8395 38.1318 25.8597C38.0378 25.8799 37.9486 25.9184 37.8695 25.973C37.7903 26.0276 37.7227 26.0973 37.6705 26.1781C37.6183 26.2589 37.5825 26.3491 37.5651 26.4438C37.5301 26.6348 37.5724 26.8319 37.6827 26.9918C37.7931 27.1517 37.9624 27.2611 38.1534 27.2962C42.2932 28.0553 45.2977 31.6629 45.2977 35.8743C45.2977 40.1075 42.2658 43.6454 38.2598 44.4319C38.2519 44.4332 38.2438 44.4337 38.2359 44.4352C37.6891 44.5413 37.1334 44.595 36.5764 44.5956C31.7674 44.5956 27.855 40.6832 27.855 35.8743C27.855 31.608 30.9276 28.0427 34.9993 27.2962C35.1904 27.2611 35.3597 27.1517 35.47 26.9918C35.5803 26.8319 35.6226 26.6348 35.5876 26.4438C35.5146 26.0458 35.1324 25.7822 34.7352 25.8555C32.4007 26.2835 30.3769 27.4885 28.9062 29.1725L24.3521 27.4088V24.867C26.0024 23.6036 27.1404 21.7049 27.3987 19.5392C29.3602 19.4521 30.8206 17.8828 30.8206 16.017C30.821 15.1599 30.5071 14.3324 29.9383 13.6913V10.4768C29.9385 4.6998 25.2387 0 19.4619 0C13.6852 0 8.98525 4.6998 8.98525 10.4767V13.7744C8.41416 14.4056 8.10332 15.1875 8.10332 16.0169C8.10332 17.8807 9.56074 19.4519 11.5247 19.539C11.782 21.7184 12.9323 23.696 14.7439 24.9896V27.4087L4.45156 31.3989C4.44696 31.4007 4.44237 31.4025 4.43779 31.4044C4.25664 31.4789 0 33.286 0 38.2612V48.3408C0 49.2557 0.744238 50 1.65918 50H37.4562C38.3667 50 39.1074 49.2594 39.1074 48.3488V45.7424C43.5037 44.6141 46.7626 40.6178 46.7626 35.8745C46.7626 30.9557 43.2529 26.7421 38.4176 25.8555ZM26.4945 29.8093L23.856 35.0973C23.8202 35.0719 23.1582 34.6016 20.6086 32.7908L23.8529 28.7861L26.4945 29.8093ZM21.4376 35.1767L20.6832 36.3121H18.4188L17.6646 35.1767L19.5511 33.8368L21.4376 35.1767ZM16.209 27.644V25.8159C17.1987 26.2417 18.3728 26.4902 19.5657 26.4902C20.7152 26.4902 21.8535 26.2385 22.8874 25.7561V27.651L19.551 31.7693L16.209 27.644ZM28.6473 17.5644C28.3143 17.8508 27.9045 18.0214 27.4567 18.0658V13.9686C29.3327 14.1502 29.9876 16.4116 28.6473 17.5644ZM11.4674 18.0658C10.3412 17.9543 9.56836 17.0524 9.56836 16.017C9.56836 14.9788 10.4697 14.1654 11.4674 14.0019V18.0658ZM11.4913 12.5217C11.15 12.5528 10.7442 12.6536 10.4502 12.7682V10.4767C10.4502 5.50762 14.4928 1.46494 19.4618 1.46494C24.4308 1.46494 28.4735 5.50752 28.4735 10.4767V12.7039C28.146 12.5877 27.8037 12.5185 27.4567 12.4984C27.4567 11.6182 27.5638 11.8687 25.0117 9.13076C24.8077 8.91182 24.5684 8.59062 24.0621 8.48428C23.8825 8.44648 23.6972 8.44456 23.5169 8.47862C23.3366 8.51267 23.1648 8.58203 23.0113 8.68272C20.1331 10.5629 16.5212 11.6184 13.0519 11.391C12.204 11.3351 11.622 11.8172 11.4913 12.5217ZM12.9323 18.5993V12.8517C16.6595 13.1013 20.5919 11.9979 23.7641 9.94053C25.0877 11.3627 25.7997 12.1008 25.9919 12.3483C25.9919 19.6547 25.9936 18.3546 25.9878 18.76C25.9023 22.2129 23.0717 25.0253 19.5657 25.0253C15.6653 25.0254 12.9323 22.0182 12.9323 18.5993ZM15.2447 28.788L18.4897 32.7935L15.2459 35.0975L12.6073 29.8095L15.2447 28.788ZM8.24561 48.5352V39.8227C8.24561 39.4182 7.91777 39.0902 7.51318 39.0902C7.10859 39.0902 6.78076 39.4182 6.78076 39.8227V48.5352H1.65918C1.60769 48.5351 1.55833 48.5146 1.52192 48.4782C1.48551 48.4418 1.46502 48.3924 1.46494 48.3409V38.2614C1.46494 34.3208 4.79326 32.8452 4.99033 32.7614L11.2351 30.3404L13.9821 35.8459L13.9822 35.846C14.0707 36.0236 14.1967 36.18 14.3515 36.3042C14.5063 36.4285 14.6861 36.5177 14.8787 36.5657C15.5926 36.7442 16.0177 36.3462 16.4694 36.0254L17.2555 37.2084L15.3384 48.5352H8.24561ZM30.8623 48.5351H23.7637L23.1063 44.6506C23.091 44.555 23.057 44.4634 23.0061 44.3811C22.9553 44.2988 22.8886 44.2273 22.81 44.1709C22.7314 44.1145 22.6424 44.0742 22.5481 44.0524C22.4538 44.0305 22.3562 44.0276 22.2607 44.0438C22.1653 44.0599 22.0741 44.0948 21.9922 44.1464C21.9104 44.1981 21.8396 44.2654 21.7839 44.3446C21.7282 44.4237 21.6888 44.5131 21.6679 44.6076C21.6469 44.7021 21.645 44.7998 21.662 44.895L22.2781 48.5351H16.8242L18.6451 37.777H20.4573L21.0835 41.4768C21.0995 41.5716 21.134 41.6624 21.1852 41.7439C21.2363 41.8254 21.3029 41.896 21.3814 41.9518C21.4598 42.0075 21.5484 42.0472 21.6422 42.0687C21.736 42.0901 21.8331 42.0929 21.9279 42.0768C22.1194 42.0443 22.2902 41.9372 22.4027 41.7788C22.5152 41.6205 22.5602 41.4239 22.5278 41.2324L21.8468 37.2084L22.6328 36.0254L23.0939 36.3529C23.7819 36.8417 24.7435 36.6002 25.1198 35.8461H25.1199L27.8668 30.3409L27.9918 30.3893C26.9454 32.0274 26.3897 33.9308 26.3902 35.8746C26.3902 39.3751 28.1653 42.4687 30.8624 44.3029L30.8623 48.5351ZM37.6427 48.3489C37.6426 48.3983 37.623 48.4456 37.5881 48.4806C37.5532 48.5155 37.5058 48.5351 37.4564 48.5352H32.3272V45.131C33.6213 45.7273 35.0606 46.0608 36.5766 46.0608C36.9366 46.0608 37.2922 46.0418 37.6428 46.0052L37.6427 48.3489Z" fill="currentColor"/>
            <path d="M40.0432 33.7101C39.9076 33.571 39.7223 33.4914 39.528 33.489C39.3338 33.4865 39.1465 33.5612 39.0074 33.6968L36.1278 36.5037L34.9214 35.3213C34.7827 35.1853 34.5956 35.11 34.4013 35.1119C34.207 35.1139 34.0215 35.1929 33.8855 35.3317C33.7495 35.4704 33.6742 35.6575 33.6762 35.8518C33.6781 36.046 33.7572 36.2316 33.8959 36.3675L35.6136 38.0508C35.7504 38.1852 35.9345 38.2604 36.1263 38.2602C36.3173 38.2605 36.5009 38.1858 36.6375 38.0523L40.0298 34.7459C40.0987 34.6787 40.1537 34.5987 40.1916 34.5103C40.2296 34.4219 40.2498 34.3269 40.251 34.2308C40.2523 34.1346 40.2345 34.0391 40.1989 33.9498C40.1632 33.8604 40.1103 33.779 40.0432 33.7101Z" fill="currentColor"/>
            <path d="M36.5765 28.2646C32.3804 28.2646 28.9666 31.6784 28.9666 35.8745C28.9666 40.0706 32.3804 43.4844 36.5765 43.4844C40.7726 43.4844 44.1863 40.0706 44.1863 35.8745C44.1863 31.6784 40.7726 28.2646 36.5765 28.2646ZM36.5765 42.0193C33.1882 42.0193 30.4316 39.2627 30.4316 35.8744C30.4316 32.4861 33.1881 29.7295 36.5765 29.7295C39.9648 29.7295 42.7214 32.4861 42.7214 35.8744C42.7214 39.2627 39.9648 42.0193 36.5765 42.0193Z" fill="currentColor"/>
        </symbol>


        <symbol id="i-fast-flight" viewBox="0 0 63 33">
           <path d="M32.9561 9.2519C32.8183 9.2519 32.6805 9.22237 32.5427 9.15348L25.1416 5.5907C24.978 5.51319 24.8401 5.3904 24.7441 5.2369C24.6482 5.0834 24.5983 4.90561 24.6003 4.72461C24.6003 4.36046 24.807 4.02583 25.1416 3.86836L30.8401 1.1323C31.0369 1.03388 31.2534 1.0142 31.4699 1.06341L41.7351 3.44516C42.2469 3.56326 42.5717 4.07504 42.4535 4.58682C42.3354 5.0986 41.8237 5.42339 41.3119 5.30528L31.3715 3.00227L27.7694 4.73445L33.3793 7.43114C33.8517 7.65751 34.0584 8.22834 33.8222 8.70075C33.7443 8.86484 33.6218 9.00362 33.4685 9.10112C33.3153 9.19863 33.1377 9.25089 32.9561 9.2519ZM28.5174 29.1129C28.2615 29.1129 28.0056 29.0047 27.8284 28.8177C27.6928 28.674 27.6049 28.4919 27.5767 28.2964C27.5485 28.1008 27.5814 27.9013 27.671 27.7252L35.0229 13.6119C35.1213 13.415 35.2985 13.2576 35.4953 13.169L45.0223 9.15348C45.2108 9.07722 45.4184 9.06184 45.6161 9.10949C45.8137 9.15714 45.9916 9.26544 46.1246 9.41921C46.3903 9.73415 46.4198 10.1967 46.2033 10.551L36.7748 25.3041C36.6738 25.4594 36.5303 25.5824 36.3614 25.6584L28.911 29.0342C28.7831 29.0834 28.6453 29.1129 28.5174 29.1129ZM36.5484 14.7831L30.6334 26.1407L35.3083 24.0246L42.9358 12.0962L36.5484 14.7831ZM52.1183 5.27576C51.9046 5.27647 51.6969 5.20563 51.5281 5.07452C51.3594 4.9434 51.2394 4.75957 51.1873 4.55234C51.1353 4.3451 51.154 4.12639 51.2407 3.93108C51.3274 3.73576 51.477 3.57509 51.6656 3.47468L56.9999 0.659889C57.4625 0.413841 58.0432 0.590996 58.2892 1.05357C58.5353 1.51614 58.3581 2.09681 57.8955 2.34286L52.5612 5.15765C52.4262 5.23435 52.2736 5.27503 52.1183 5.27576Z" fill="currentColor"/>
           <path d="M14.9748 23.0601C14.377 23.0643 13.7864 22.9307 13.2487 22.6695C12.711 22.4083 12.2408 22.0267 11.8746 21.5543C11.0675 20.5209 10.8313 19.1922 11.2644 18.0899L8.94168 16.2396C8.91215 16.2199 8.89247 16.2003 8.86294 16.1806L5.45763 13.4642C5.20174 13.2575 5.06396 12.9426 5.10332 12.6178C5.14269 12.293 5.33953 12.0076 5.63479 11.86L10.2703 9.57663C10.5459 9.43884 10.8707 9.44868 11.1463 9.59631L18.3014 13.474C18.6065 13.6315 18.9706 13.6512 19.2757 13.5036L45.1502 1.67355C49.6774 -0.37357 56.8621 -1.00346 61.9503 2.46091C62.5901 2.89395 62.9936 3.62226 63.0034 4.40961C63.0231 5.20681 62.659 5.95479 62.0192 6.43705C59.0863 8.62196 52.197 12.4603 42.4141 16.1117C41.922 16.2987 41.3709 16.0428 41.1839 15.5507C40.9969 15.0586 41.2528 14.5074 41.7449 14.3204C51.3407 10.738 58.0529 7.00788 60.8776 4.90171C61.0744 4.75408 61.0941 4.53756 61.0941 4.44898C61.095 4.36754 61.0757 4.28714 61.0379 4.215C61.0002 4.14286 60.945 4.08122 60.8776 4.03562C56.5963 1.1224 50.1203 1.51608 45.9375 3.40573L20.0631 15.2357C19.2167 15.6294 18.2128 15.5999 17.3762 15.1472L10.6542 11.5056L7.80986 12.9032L9.96524 14.6255C9.99477 14.6452 10.0145 14.6649 10.044 14.6846L12.5143 16.653C13.1442 17.1352 13.3607 17.9915 13.0359 18.7788C12.8489 19.2512 12.9769 19.8811 13.3706 20.3831C13.5871 20.6586 14.1973 21.2688 15.27 21.1311C21.1752 20.3339 27.3166 18.9658 33.5072 17.086C33.6273 17.0491 33.7536 17.0364 33.8788 17.0487C34.0039 17.0609 34.1253 17.0979 34.2361 17.1573C34.3468 17.2168 34.4447 17.2977 34.524 17.3953C34.6033 17.4928 34.6624 17.6052 34.698 17.7257C34.7349 17.8459 34.7476 17.9722 34.7354 18.0974C34.7231 18.2225 34.6862 18.3439 34.6267 18.4547C34.5672 18.5655 34.4863 18.6633 34.3888 18.7426C34.2912 18.8219 34.1789 18.881 34.0583 18.9166C27.7693 20.826 21.5295 22.2038 15.5161 23.0207C15.3389 23.0502 15.1618 23.0601 14.9748 23.0601Z" fill="currentColor"/>
           <path d="M9.46327 16.3874C9.24453 16.3862 9.0328 16.3101 8.86337 16.1717C8.69394 16.0334 8.57704 15.8411 8.53215 15.6271C8.48726 15.413 8.51709 15.19 8.61668 14.9952C8.71627 14.8005 8.87959 14.6457 9.07943 14.5568L14.1972 11.7518C14.3071 11.6911 14.4278 11.6526 14.5526 11.6385C14.6773 11.6244 14.8036 11.635 14.9243 11.6698C15.0449 11.7045 15.1575 11.7626 15.2557 11.8409C15.3538 11.9191 15.4356 12.016 15.4964 12.1258C15.5571 12.2357 15.5956 12.3564 15.6097 12.4812C15.6238 12.6059 15.6132 12.7322 15.5784 12.8528C15.5437 12.9735 15.4856 13.0861 15.4073 13.1842C15.3291 13.2824 15.2322 13.3642 15.1224 13.4249L9.93568 16.2693C9.77821 16.348 9.62074 16.3874 9.46327 16.3874ZM5.30997 27.6465C4.95566 27.6465 4.61119 27.4497 4.44388 27.1052C4.38952 26.9923 4.35811 26.8696 4.35147 26.7445C4.34483 26.6193 4.36309 26.494 4.40519 26.3759C4.4473 26.2578 4.51242 26.1493 4.59677 26.0565C4.68112 25.9638 4.78303 25.8887 4.89661 25.8356L9.32548 23.7098C9.43792 23.6561 9.55983 23.6252 9.68424 23.6186C9.80865 23.6121 9.93313 23.6302 10.0506 23.6717C10.168 23.7133 10.2761 23.7776 10.3687 23.861C10.4613 23.9444 10.5365 24.0451 10.5902 24.1576C10.6438 24.27 10.6748 24.3919 10.6813 24.5163C10.6878 24.6408 10.6698 24.7652 10.6282 24.8827C10.5866 25.0001 10.5223 25.1082 10.4389 25.2008C10.3556 25.2934 10.2548 25.3686 10.1424 25.4223L5.71349 27.5481C5.58554 27.617 5.44776 27.6465 5.30997 27.6465ZM0.959834 29.7232C0.605524 29.7232 0.261056 29.5264 0.0937435 29.1819C0.0393814 29.0689 0.00797072 28.9463 0.00133048 28.8211C-0.00530975 28.6959 0.0129524 28.5707 0.0550593 28.4526C0.0971663 28.3345 0.162281 28.2259 0.246634 28.1332C0.330986 28.0404 0.4329 27.9654 0.546472 27.9123L2.09166 27.1741C2.2041 27.1205 2.32601 27.0895 2.45042 27.083C2.57483 27.0765 2.69931 27.0945 2.81674 27.1361C2.93418 27.1777 3.04228 27.242 3.13486 27.3254C3.22745 27.4087 3.30271 27.5095 3.35634 27.6219C3.40998 27.7344 3.44095 27.8563 3.44747 27.9807C3.45399 28.1051 3.43595 28.2296 3.39437 28.347C3.35278 28.4645 3.28848 28.5726 3.20512 28.6651C3.12176 28.7577 3.02098 28.833 2.90854 28.8866L1.36335 29.6248C1.23541 29.6937 1.09762 29.7232 0.959834 29.7232ZM10.7033 29.3984C10.349 29.3984 10.0046 29.2016 9.83726 28.8571C9.7829 28.7441 9.75149 28.6215 9.74485 28.4963C9.73821 28.3711 9.75647 28.2459 9.79858 28.1278C9.84068 28.0097 9.9058 27.9011 9.99015 27.8084C10.0745 27.7157 10.1764 27.6406 10.29 27.5875L14.7189 25.4616C14.9459 25.3533 15.2068 25.3396 15.4439 25.4236C15.6811 25.5076 15.8752 25.6823 15.9835 25.9094C16.0919 26.1365 16.1055 26.3974 16.0216 26.6345C15.9376 26.8717 15.7628 27.0658 15.5357 27.1741L11.1069 29.3C10.9789 29.3689 10.8411 29.3984 10.7033 29.3984ZM6.35321 31.4849C5.9989 31.4849 5.65444 31.2881 5.48712 30.9436C5.43276 30.8306 5.40135 30.708 5.39471 30.5828C5.38807 30.4576 5.40633 30.3324 5.44844 30.2143C5.49055 30.0962 5.55566 29.9876 5.64001 29.8949C5.72437 29.8021 5.82628 29.7271 5.93985 29.674L7.54409 28.8965C7.65653 28.8428 7.77844 28.8119 7.90285 28.8053C8.02726 28.7988 8.15174 28.8169 8.26918 28.8584C8.38661 28.9 8.49471 28.9643 8.5873 29.0477C8.67988 29.1311 8.75514 29.2318 8.80878 29.3443C8.86241 29.4567 8.89338 29.5786 8.8999 29.703C8.90643 29.8274 8.88838 29.9519 8.8468 30.0694C8.80522 30.1868 8.74091 30.2949 8.65755 30.3875C8.57419 30.4801 8.47341 30.5553 8.36097 30.609L6.75673 31.3766C6.63863 31.4554 6.491 31.4849 6.35321 31.4849ZM17.2581 30.1169C17.0415 30.1191 16.8305 30.0474 16.6601 29.9136C16.4897 29.7798 16.37 29.592 16.3207 29.381C16.2714 29.1701 16.2955 28.9486 16.389 28.7532C16.4824 28.5577 16.6397 28.4 16.8349 28.306L21.2637 26.1801C21.7362 25.9537 22.307 26.1506 22.5334 26.623C22.7597 27.0954 22.5629 27.6662 22.0905 27.8926L17.6616 30.0184C17.5337 30.0873 17.3959 30.1169 17.2581 30.1169ZM12.9079 32.2034C12.5536 32.2034 12.2092 32.0065 12.0517 31.6621C11.9426 31.4349 11.9279 31.1737 12.0109 30.9358C12.0939 30.6978 12.2678 30.5025 12.4946 30.3924L13.9906 29.674C14.463 29.4476 15.0338 29.6445 15.2602 30.1169C15.4865 30.5893 15.2897 31.1601 14.8173 31.3865L13.3213 32.1049C13.1835 32.1738 13.0457 32.2034 12.9079 32.2034Z" fill="currentColor"/>
        </symbol>

        <symbol id="i-geme" viewBox="0 0 50 50">
            <g clip-path="url(#clip0_9_202)">
                <path d="M25 47.9166C24.8481 47.9164 24.698 47.8831 24.5602 47.819C24.4225 47.755 24.3003 47.6618 24.2021 47.5458L0.243758 19.0896C0.108574 18.9289 0.0250987 18.7311 0.00427945 18.5222C-0.0165398 18.3133 0.0262688 18.1029 0.127091 17.9187L8.52709 2.62498C8.6167 2.46121 8.74867 2.32453 8.9092 2.22924C9.06972 2.13395 9.25291 2.08355 9.43959 2.08331H40.5604C40.9417 2.08331 41.2917 2.29165 41.4729 2.62498L49.8708 17.9187C50.0792 18.2958 50.0313 18.7604 49.7542 19.0896L25.7958 47.5458C25.6982 47.6618 25.5764 47.7551 25.4389 47.8192C25.3014 47.8832 25.1517 47.9165 25 47.9166ZM2.30001 18.2937L25 45.2583L47.7 18.2937L39.9438 4.16665H10.0563L2.30001 18.2937Z" fill="currentColor"/>
                <path d="M48.4375 19.7916H1.56248C1.28621 19.7916 1.02126 19.6818 0.82591 19.4865C0.63056 19.2911 0.520813 19.0262 0.520813 18.7499C0.520813 18.4737 0.63056 18.2087 0.82591 18.0133C1.02126 17.818 1.28621 17.7083 1.56248 17.7083H48.4375C48.7137 17.7083 48.9787 17.818 49.1741 18.0133C49.3694 18.2087 49.4791 18.4737 49.4791 18.7499C49.4791 19.0262 49.3694 19.2911 49.1741 19.4865C48.9787 19.6818 48.7137 19.7916 48.4375 19.7916Z" fill="currentColor"/>
                <path d="M35.5458 19.2062C35.3785 19.2064 35.2137 19.1661 35.0653 19.0889C34.917 19.0116 34.7895 18.8996 34.6937 18.7624L25.0042 4.94367L15.4375 18.6895C15.3594 18.8017 15.2599 18.8974 15.1448 18.9711C15.0298 19.0448 14.9013 19.0952 14.7667 19.1193C14.6322 19.1434 14.4942 19.1407 14.3607 19.1115C14.2272 19.0822 14.1007 19.027 13.9885 18.9489C13.762 18.7911 13.6074 18.5499 13.5588 18.2781C13.5347 18.1436 13.5373 18.0056 13.5666 17.8721C13.5958 17.7385 13.651 17.6121 13.7292 17.4999L24.1458 2.52909C24.2413 2.39152 24.3687 2.27912 24.5171 2.20148C24.6655 2.12384 24.8304 2.08328 24.9979 2.08325H25C25.3396 2.08325 25.6562 2.24784 25.8521 2.527L36.3979 17.5666C36.508 17.7224 36.5732 17.9056 36.5861 18.096C36.5991 18.2864 36.5594 18.4767 36.4714 18.646C36.3834 18.8153 36.2505 18.9572 36.0872 19.056C35.924 19.1548 35.7367 19.2067 35.5458 19.2062Z" fill="currentColor"/>
                <path d="M25 47.9166C24.7851 47.9166 24.5754 47.8502 24.3997 47.7263C24.224 47.6025 24.091 47.4274 24.0187 47.2249L8.45832 3.47493C8.38449 3.21961 8.41083 2.94573 8.53199 2.70917C8.65315 2.47261 8.86 2.29117 9.11033 2.20188C9.36067 2.11259 9.63564 2.12216 9.87917 2.22865C10.1227 2.33514 10.3164 2.53051 10.4208 2.77493L25 43.7666L39.5792 2.77493C39.672 2.51469 39.8644 2.30198 40.114 2.1836C40.3637 2.06521 40.6502 2.05086 40.9104 2.14368C41.1707 2.23651 41.3834 2.42891 41.5017 2.67857C41.6201 2.92823 41.6345 3.21469 41.5417 3.47493L25.9812 47.2249C25.909 47.4274 25.776 47.6025 25.6003 47.7263C25.4246 47.8502 25.2149 47.9166 25 47.9166Z" fill="currentColor"/>
            </g>
            <defs>
                <clipPath id="clip0_9_202">
                    <rect width="50" height="50" fill="white"/>
                </clipPath>
            </defs>
        </symbol> 
    </defs>
</svg>