<svg display="none" fill="none"
    xmlns="http://www.w3.org/2000/svg">
    <defs>
        <symbol id="i-globe" viewBox="0 0 32 32" fill="none">
            <path d="M16 28C14.3487 28 12.7931 27.6842 11.3333 27.0527C9.87356 26.4209 8.60222 25.5636 7.51933 24.4807C6.43644 23.3978 5.57911 22.1264 4.94733 20.6667C4.31578 19.2069 4 17.6513 4 16C4 14.3436 4.31578 12.7867 4.94733 11.3293C5.57911 9.87222 6.43644 8.60222 7.51933 7.51933C8.60222 6.43644 9.87356 5.57911 11.3333 4.94733C12.7931 4.31578 14.3487 4 16 4C17.6564 4 19.2133 4.31578 20.6707 4.94733C22.1278 5.57911 23.3978 6.43644 24.4807 7.51933C25.5636 8.60222 26.4209 9.87222 27.0527 11.3293C27.6842 12.7867 28 14.3436 28 16C28 17.6513 27.6842 19.2069 27.0527 20.6667C26.4209 22.1264 25.5636 23.3978 24.4807 24.4807C23.3978 25.5636 22.1278 26.4209 20.6707 27.0527C19.2133 27.6842 17.6564 28 16 28ZM16 26.677C16.7829 25.6719 17.4282 24.6847 17.936 23.7153C18.4436 22.7462 18.8563 21.6617 19.1743 20.4617H12.8257C13.1779 21.7299 13.5992 22.8487 14.0897 23.818C14.5803 24.7871 15.2171 25.7401 16 26.677ZM14.3027 26.477C13.6804 25.7437 13.1124 24.8372 12.5987 23.7577C12.0851 22.6781 11.7027 21.5794 11.4513 20.4617H6.33833C7.10256 22.1197 8.18589 23.4794 9.58833 24.541C10.991 25.6026 12.5624 26.2479 14.3027 26.477ZM17.6973 26.477C19.4376 26.2479 21.009 25.6026 22.4117 24.541C23.8141 23.4794 24.8974 22.1197 25.6617 20.4617H20.5487C20.212 21.5966 19.7868 22.7038 19.273 23.7833C18.7594 24.8629 18.2342 25.7608 17.6973 26.477ZM5.795 19.1283H11.1743C11.0734 18.5812 11.0021 18.0482 10.9603 17.5293C10.9183 17.0107 10.8973 16.5009 10.8973 16C10.8973 15.4991 10.9183 14.9893 10.9603 14.4707C11.0021 13.9518 11.0734 13.4188 11.1743 12.8717H5.795C5.64967 13.3332 5.53633 13.8362 5.455 14.3807C5.37389 14.9251 5.33333 15.4649 5.33333 16C5.33333 16.5351 5.37389 17.0749 5.455 17.6193C5.53633 18.1638 5.64967 18.6668 5.795 19.1283ZM12.5077 19.1283H19.4923C19.5932 18.5812 19.6646 18.0568 19.7063 17.555C19.7483 17.0534 19.7693 16.5351 19.7693 16C19.7693 15.4649 19.7483 14.9466 19.7063 14.445C19.6646 13.9432 19.5932 13.4188 19.4923 12.8717H12.5077C12.4068 13.4188 12.3354 13.9432 12.2937 14.445C12.2517 14.9466 12.2307 15.4649 12.2307 16C12.2307 16.5351 12.2517 17.0534 12.2937 17.555C12.3354 18.0568 12.4068 18.5812 12.5077 19.1283ZM20.8257 19.1283H26.205C26.3503 18.6668 26.4637 18.1638 26.545 17.6193C26.6261 17.0749 26.6667 16.5351 26.6667 16C26.6667 15.4649 26.6261 14.9251 26.545 14.3807C26.4637 13.8362 26.3503 13.3332 26.205 12.8717H20.8257C20.9266 13.4188 20.9979 13.9518 21.0397 14.4707C21.0817 14.9893 21.1027 15.4991 21.1027 16C21.1027 16.5009 21.0817 17.0107 21.0397 17.5293C20.9979 18.0482 20.9266 18.5812 20.8257 19.1283ZM20.5487 11.5383H25.6617C24.8803 9.84611 23.8098 8.48633 22.45 7.459C21.0902 6.43167 19.506 5.77778 17.6973 5.49733C18.3196 6.31622 18.879 7.25256 19.3757 8.30633C19.8723 9.36033 20.2633 10.4377 20.5487 11.5383ZM12.8257 11.5383H19.1743C18.8221 10.2872 18.3879 9.15567 17.8717 8.14367C17.3554 7.13167 16.7316 6.19144 16 5.323C15.2684 6.19144 14.6446 7.13167 14.1283 8.14367C13.6121 9.15567 13.1779 10.2872 12.8257 11.5383ZM6.33833 11.5383H11.4513C11.7367 10.4377 12.1277 9.36033 12.6243 8.30633C13.121 7.25256 13.6804 6.31622 14.3027 5.49733C12.4769 5.77778 10.8884 6.43589 9.53733 7.47167C8.186 8.50767 7.11967 9.86322 6.33833 11.5383Z" fill="currentColor"/>
        </symbol>
        <symbol id="i-geme" viewBox="0 0 50 50" fill="none">
<g clip-path="url(#clip0_9_202)">
<path d="M25 47.9166C24.8481 47.9164 24.698 47.8831 24.5602 47.819C24.4225 47.755 24.3003 47.6618 24.2021 47.5458L0.243758 19.0896C0.108574 18.9289 0.0250987 18.7311 0.00427945 18.5222C-0.0165398 18.3133 0.0262688 18.1029 0.127091 17.9187L8.52709 2.62498C8.6167 2.46121 8.74867 2.32453 8.9092 2.22924C9.06972 2.13395 9.25291 2.08355 9.43959 2.08331H40.5604C40.9417 2.08331 41.2917 2.29165 41.4729 2.62498L49.8708 17.9187C50.0792 18.2958 50.0313 18.7604 49.7542 19.0896L25.7958 47.5458C25.6982 47.6618 25.5764 47.7551 25.4389 47.8192C25.3014 47.8832 25.1517 47.9165 25 47.9166ZM2.30001 18.2937L25 45.2583L47.7 18.2937L39.9438 4.16665H10.0563L2.30001 18.2937Z" fill="currentColor"/>
<path d="M48.4375 19.7916H1.56248C1.28621 19.7916 1.02126 19.6818 0.82591 19.4865C0.63056 19.2911 0.520813 19.0262 0.520813 18.7499C0.520813 18.4737 0.63056 18.2087 0.82591 18.0133C1.02126 17.818 1.28621 17.7083 1.56248 17.7083H48.4375C48.7137 17.7083 48.9787 17.818 49.1741 18.0133C49.3694 18.2087 49.4791 18.4737 49.4791 18.7499C49.4791 19.0262 49.3694 19.2911 49.1741 19.4865C48.9787 19.6818 48.7137 19.7916 48.4375 19.7916Z" fill="currentColor"/>
<path d="M35.5458 19.2062C35.3785 19.2064 35.2137 19.1661 35.0653 19.0889C34.917 19.0116 34.7895 18.8996 34.6937 18.7624L25.0042 4.94367L15.4375 18.6895C15.3594 18.8017 15.2599 18.8974 15.1448 18.9711C15.0298 19.0448 14.9013 19.0952 14.7667 19.1193C14.6322 19.1434 14.4942 19.1407 14.3607 19.1115C14.2272 19.0822 14.1007 19.027 13.9885 18.9489C13.762 18.7911 13.6074 18.5499 13.5588 18.2781C13.5347 18.1436 13.5373 18.0056 13.5666 17.8721C13.5958 17.7385 13.651 17.6121 13.7292 17.4999L24.1458 2.52909C24.2413 2.39152 24.3687 2.27912 24.5171 2.20148C24.6655 2.12384 24.8304 2.08328 24.9979 2.08325H25C25.3396 2.08325 25.6562 2.24784 25.8521 2.527L36.3979 17.5666C36.508 17.7224 36.5732 17.9056 36.5861 18.096C36.5991 18.2864 36.5594 18.4767 36.4714 18.646C36.3834 18.8153 36.2505 18.9572 36.0872 19.056C35.924 19.1548 35.7367 19.2067 35.5458 19.2062Z" fill="currentColor"/>
<path d="M25 47.9166C24.7851 47.9166 24.5754 47.8502 24.3997 47.7263C24.224 47.6025 24.091 47.4274 24.0187 47.2249L8.45832 3.47493C8.38449 3.21961 8.41083 2.94573 8.53199 2.70917C8.65315 2.47261 8.86 2.29117 9.11033 2.20188C9.36067 2.11259 9.63564 2.12216 9.87917 2.22865C10.1227 2.33514 10.3164 2.53051 10.4208 2.77493L25 43.7666L39.5792 2.77493C39.672 2.51469 39.8644 2.30198 40.114 2.1836C40.3637 2.06521 40.6502 2.05086 40.9104 2.14368C41.1707 2.23651 41.3834 2.42891 41.5017 2.67857C41.6201 2.92823 41.6345 3.21469 41.5417 3.47493L25.9812 47.2249C25.909 47.4274 25.776 47.6025 25.6003 47.7263C25.4246 47.8502 25.2149 47.9166 25 47.9166Z" fill="currentColor"/>
</g>
<defs>
<clipPath id="clip0_9_202">
<rect width="50" height="50" fill="white"/>
</clipPath>
</defs>
</symbol>
    </defs>
</svg>