<svg width="38" height="30" viewBox="0 0 38 30" fill="none" xmlns="http://www.w3.org/2000/svg">
<path d="M3.4105 29.5556C2.43868 29.5556 1.62731 29.2301 0.976389 28.5792C0.325463 27.9282 0 27.1169 0 26.1451V3.4105C0 2.43869 0.325463 1.62731 0.976389 0.976389C1.62731 0.325463 2.43868 0 3.4105 0H34.5895C35.5613 0 36.3727 0.325463 37.0236 0.976389C37.6745 1.62731 38 2.43869 38 3.4105V26.1451C38 27.1169 37.6745 27.9282 37.0236 28.5792C36.3727 29.2301 35.5613 29.5556 34.5895 29.5556H3.4105ZM19 15.0216L2.11111 3.97839V26.1451C2.11111 26.524 2.23285 26.8354 2.47633 27.0792C2.72017 27.3227 3.03156 27.4444 3.4105 27.4444H34.5895C34.9684 27.4444 35.2798 27.3227 35.5237 27.0792C35.7672 26.8354 35.8889 26.524 35.8889 26.1451V3.97839L19 15.0216ZM19 12.6667L35.2392 2.11111H2.76081L19 12.6667ZM2.11111 3.97839V2.11111V26.1451C2.11111 26.524 2.23285 26.8354 2.47633 27.0792C2.72017 27.3227 3.03156 27.4444 3.4105 27.4444H2.11111V3.97839Z" fill="#DEF900"/>
</svg>
