<svg width="32" height="40" viewBox="0 0 32 40" fill="none" xmlns="http://www.w3.org/2000/svg">
<path d="M15.7604 19.3809C16.7486 19.3809 17.5919 19.0291 18.2904 18.3254C18.9893 17.6217 19.3388 16.7758 19.3388 15.7876C19.3388 14.7994 18.9867 13.9558 18.2827 13.2569C17.579 12.5584 16.733 12.2092 15.7448 12.2092C14.7566 12.2092 13.9133 12.561 13.2148 13.2647C12.5159 13.9684 12.1664 14.8143 12.1664 15.8025C12.1664 16.7907 12.5185 17.6343 13.2225 18.3332C13.9262 19.0317 14.7722 19.3809 15.7604 19.3809ZM15.7526 37.0204C19.9248 33.3887 23.2233 29.6953 25.6481 25.94C28.0729 22.1848 29.2853 18.937 29.2853 16.1966C29.2853 12.1354 27.9997 8.78339 25.4284 6.14066C22.857 3.4983 19.6318 2.17711 15.7526 2.17711C11.8734 2.17711 8.64816 3.4983 6.07683 6.14066C3.50551 8.78339 2.21985 12.1354 2.21985 16.1966C2.21985 18.937 3.43226 22.1848 5.85707 25.94C8.28188 29.6953 11.5804 33.3887 15.7526 37.0204ZM15.7526 40C10.536 35.3868 6.60645 31.0843 3.96409 27.0927C1.32136 23.1014 0 19.4694 0 16.1966C0 11.5005 1.52911 7.62703 4.58732 4.57622C7.64516 1.52541 11.3669 0 15.7526 0C20.1383 0 23.86 1.52541 26.9179 4.57622C29.9761 7.62703 31.5052 11.5005 31.5052 16.1966C31.5052 19.4694 30.1838 23.1014 27.5411 27.0927C24.8987 31.0843 20.9692 35.3868 15.7526 40Z" fill="#DEF900"/>
</svg>
