<svg width="36" height="36" viewBox="0 0 36 36" fill="none" xmlns="http://www.w3.org/2000/svg">
<path d="M32.8953 17.3705C32.6433 13.256 31.0775 9.75891 28.1978 6.87927C25.3182 3.99927 21.8211 2.43345 17.7065 2.18182V0C20.0702 0.112 22.282 0.637091 24.342 1.57527C26.402 2.51382 28.2089 3.76 29.7627 5.31382C31.3165 6.86764 32.5627 8.67473 33.5013 10.7351C34.4398 12.7951 34.9651 15.0069 35.0771 17.3705H32.8953ZM24.168 17.3705C23.916 15.6924 23.1956 14.2518 22.0069 13.0489C20.8182 11.846 19.3847 11.1327 17.7065 10.9091V8.72727C19.9975 8.95091 21.9476 9.87473 23.5571 11.4987C25.1669 13.1224 26.0978 15.0796 26.3498 17.3705H24.168ZM32.5762 36C28.898 36 25.1275 35.0791 21.2645 33.2373C17.4016 31.3951 13.8058 28.8096 10.4771 25.4809C7.17636 22.1525 4.60491 18.5638 2.76273 14.7147C0.920909 10.8656 0 7.102 0 3.42382C0 2.76927 0.218182 2.21673 0.654545 1.76618C1.09091 1.316 1.63636 1.09091 2.29091 1.09091H7.68655C8.27964 1.09091 8.79709 1.27764 9.23891 1.65109C9.68109 2.02455 9.98055 2.50364 10.1373 3.08836L11.2195 8.29091C11.3202 8.90073 11.302 9.43364 11.1649 9.88964C11.0278 10.3456 10.7858 10.7191 10.4389 11.01L5.652 15.474C6.54691 17.0991 7.53636 18.6089 8.62037 20.0035C9.70436 21.398 10.8604 22.7189 12.0884 23.9662C13.3553 25.2335 14.7189 26.4118 16.1793 27.5013C17.6393 28.5907 19.242 29.6195 20.9875 30.5875L25.6533 25.8376C26.0085 25.4544 26.4078 25.202 26.8511 25.0805C27.2944 24.9587 27.7845 24.9342 28.3216 25.0069L32.9116 25.9467C33.5047 26.0922 33.986 26.3909 34.3555 26.8429C34.7245 27.2945 34.9091 27.8127 34.9091 28.3975V33.7091C34.9091 34.3636 34.684 34.9091 34.2338 35.3455C33.7833 35.7818 33.2307 36 32.5762 36ZM4.62818 13.4264L8.81564 9.57491C8.95527 9.46291 9.04618 9.30909 9.08836 9.11346C9.13018 8.91746 9.12309 8.73564 9.06709 8.568L8.09782 3.94418C8.04182 3.72018 7.944 3.55236 7.80436 3.44073C7.66436 3.32873 7.48255 3.27273 7.25891 3.27273H2.78182C2.61382 3.27273 2.474 3.32873 2.36236 3.44073C2.25036 3.55236 2.19436 3.69218 2.19436 3.86018C2.23618 5.35109 2.46982 6.90764 2.89527 8.52982C3.32036 10.1524 3.898 11.7845 4.62818 13.4264ZM23.0645 31.6113C24.5384 32.3415 26.1096 32.8813 27.7784 33.2307C29.4467 33.5805 30.9005 33.768 32.1398 33.7931C32.3078 33.7931 32.4476 33.7371 32.5593 33.6251C32.6713 33.5131 32.7273 33.3733 32.7273 33.2056V28.8251C32.7273 28.6015 32.6713 28.4196 32.5593 28.2796C32.4476 28.14 32.2798 28.0422 32.0558 27.9862L28.0195 27.1593C27.8518 27.1033 27.7051 27.0964 27.5793 27.1385C27.4531 27.1804 27.3202 27.2713 27.1805 27.4113L23.0645 31.6113Z" fill="#DEF900"/>
</svg>
